<svg width="62" height="62" viewBox="0 0 62 62" fill="none" xmlns="http://www.w3.org/2000/svg">
<path fill-rule="evenodd" clip-rule="evenodd" d="M31.0716 0C31.4892 0 31.8277 0.338517 31.8277 0.756098V5.32712C31.8277 5.7447 31.4892 6.08322 31.0716 6.08322C30.654 6.08322 30.3155 5.7447 30.3155 5.32712V0.756098C30.3155 0.338517 30.654 0 31.0716 0ZM23.1059 1.16141C22.6978 1.25007 22.4417 1.65212 22.5338 2.05941L23.5432 6.52158C23.6353 6.92888 24.0408 7.18717 24.4489 7.09851C24.8569 7.00985 25.113 6.6078 25.0209 6.20051L24.0116 1.73834C23.9194 1.33105 23.5139 1.07275 23.1059 1.16141ZM14.914 5.10432C14.7149 4.73727 14.8536 4.28329 15.224 4.09031C15.5943 3.89733 16.0559 4.03844 16.255 4.40549L18.4446 8.44146C18.6437 8.8085 18.505 9.26249 18.1346 9.45547C17.7643 9.64844 17.3027 9.50733 17.1036 9.14029L14.914 5.10432ZM9.05966 9.16129C8.75637 9.44834 8.7481 9.92216 9.04119 10.2196L12.281 13.5077C12.5741 13.8052 13.0576 13.8136 13.3608 13.5266C13.6641 13.2395 13.6724 12.7657 13.3793 12.4683L10.1395 9.18014C9.84639 8.88269 9.36294 8.87425 9.05966 9.16129ZM4.27506 16.7806C3.91163 16.5749 3.78883 16.1165 4.00078 15.7567C4.21273 15.3969 4.67917 15.272 5.0426 15.4776L9.08169 17.7631C9.44512 17.9688 9.56792 18.4272 9.35597 18.787C9.14402 19.1468 8.67758 19.2717 8.31415 19.0661L4.27506 16.7806ZM1.18192 23.457C1.09341 23.8651 1.35307 24.2649 1.76187 24.3501L6.32389 25.3005C6.7327 25.3856 7.13585 25.1239 7.22435 24.7158C7.31286 24.3077 7.05321 23.9078 6.6444 23.8226L2.08238 22.8723C1.67358 22.7871 1.27043 23.0489 1.18192 23.457ZM5.42004 31.7952C5.83762 31.7952 6.17613 31.4567 6.17613 31.0391C6.17613 30.6215 5.83762 30.283 5.42004 30.283H0.756098C0.338517 30.283 0 30.6215 0 31.0391C0 31.4567 0.338517 31.7952 0.756098 31.7952H5.42004ZM38.8941 1.27566C39.3022 1.36432 39.5583 1.76637 39.4661 2.17366L38.4568 6.63583C38.3647 7.04312 37.9592 7.30142 37.5511 7.21276C37.143 7.1241 36.8869 6.72205 36.9791 6.31476L37.9884 1.85259C38.0805 1.44529 38.486 1.18699 38.8941 1.27566ZM47.086 5.21857C47.2851 4.85152 47.1463 4.39753 46.776 4.20456C46.4057 4.01158 45.9441 4.15269 45.745 4.51973L43.5554 8.55571C43.3562 8.92275 43.495 9.37674 43.8653 9.56972C44.2356 9.76269 44.6973 9.62158 44.8964 9.25454L47.086 5.21857ZM52.9403 9.2755C53.2436 9.56254 53.2519 10.0364 52.9588 10.3338L49.7189 13.6219C49.4259 13.9194 48.9424 13.9278 48.6391 13.6408C48.3358 13.3537 48.3276 12.8799 48.6207 12.5825L51.8605 9.29434C52.1536 8.99689 52.637 8.98845 52.9403 9.2755ZM57.725 16.8948C58.0884 16.6892 58.2112 16.2308 57.9993 15.871C57.7873 15.5112 57.3209 15.3862 56.9574 15.5919L52.9184 17.8774C52.5549 18.083 52.4321 18.5414 52.6441 18.9012C52.856 19.261 53.3225 19.386 53.6859 19.1803L57.725 16.8948ZM60.8181 23.5712C60.9066 23.9793 60.6469 24.3792 60.2381 24.4644L55.6761 25.4147C55.2673 25.4999 54.8642 25.2381 54.7757 24.83C54.6871 24.4219 54.9468 24.0221 55.3556 23.9369L59.9176 22.9865C60.3264 22.9014 60.7296 23.1631 60.8181 23.5712ZM55.8239 31.1534C55.8239 31.571 56.1624 31.9095 56.58 31.9095H61.2439C61.6615 31.9095 62 31.571 62 31.1534C62 30.7358 61.6615 30.3973 61.2439 30.3973H56.58C56.1624 30.3973 55.8239 30.7358 55.8239 31.1534ZM60.4715 37.5357C60.8803 37.6209 61.1399 38.0207 61.0514 38.4288C60.9629 38.8369 60.5597 39.0987 60.1509 39.0136L55.5889 38.0632C55.1801 37.978 54.9205 37.5782 55.009 37.1701C55.0975 36.762 55.5006 36.5002 55.9094 36.5854L60.4715 37.5357ZM1.41506 38.5431C1.32655 38.135 1.5862 37.7351 1.99501 37.6499L6.55703 36.6996C6.96583 36.6144 7.36898 36.8762 7.45749 37.2843C7.54599 37.6924 7.28634 38.0923 6.87754 38.1774L2.31552 39.1278C1.90671 39.2129 1.50356 38.9512 1.41506 38.5431ZM4.50823 45.2195C4.14479 45.4252 4.02199 45.8835 4.23394 46.2433C4.44589 46.6031 4.91233 46.7281 5.27576 46.5224L9.31485 44.2369C9.67829 44.0313 9.80108 43.5729 9.58914 43.2131C9.37719 42.8533 8.91075 42.7284 8.54731 42.934L4.50823 45.2195ZM9.29288 52.8388C8.9896 52.5517 8.98133 52.0779 9.27441 51.7805L12.5143 48.4924C12.8073 48.1949 13.2908 48.1865 13.5941 48.4735C13.8974 48.7606 13.9056 49.2344 13.6125 49.5318L10.3727 52.8199C10.0796 53.1174 9.59616 53.1258 9.29288 52.8388ZM15.1472 56.8957C14.9481 57.2628 15.0868 57.7168 15.4571 57.9097C15.8275 58.1027 16.2891 57.9616 16.4882 57.5946L18.6778 53.5586C18.8769 53.1916 18.7382 52.7376 18.3678 52.5446C17.9975 52.3516 17.5359 52.4927 17.3368 52.8598L15.1472 56.8957ZM23.3391 60.8387C22.931 60.75 22.6749 60.348 22.767 59.9407L23.7764 55.4785C23.8685 55.0712 24.274 54.8129 24.6821 54.9016C25.0901 54.9902 25.3462 55.3923 25.2541 55.7996L24.2448 60.2617C24.1526 60.669 23.7471 60.9273 23.3391 60.8387ZM31.3049 62.0001C31.7225 62.0001 32.061 61.6616 32.061 61.244V56.6729C32.061 56.2554 31.7225 55.9169 31.3049 55.9169C30.8873 55.9169 30.5488 56.2554 30.5488 56.6729V61.244C30.5488 61.6616 30.8873 62.0001 31.3049 62.0001ZM39.6993 59.8264C39.7915 60.2337 39.5353 60.6357 39.1273 60.7244C38.7192 60.8131 38.3137 60.5548 38.2216 60.1475L37.2123 55.6853C37.1201 55.278 37.3762 54.876 37.7843 54.7873C38.1924 54.6986 38.5978 54.9569 38.69 55.3642L39.6993 59.8264ZM47.0092 57.7955C47.3795 57.6025 47.5183 57.1486 47.3192 56.7815L45.1296 52.7455C44.9305 52.3785 44.4688 52.2374 44.0985 52.4304C43.7282 52.6233 43.5894 53.0773 43.7886 53.4444L45.9782 57.4803C46.1773 57.8474 46.6389 57.9885 47.0092 57.7955ZM53.192 51.6663C53.4851 51.9637 53.4768 52.4375 53.1735 52.7246C52.8703 53.0116 52.3868 53.0032 52.0937 52.7057L48.8539 49.4176C48.5608 49.1202 48.5691 48.6463 48.8724 48.3593C49.1756 48.0723 49.6591 48.0807 49.9522 48.3781L53.192 51.6663ZM58.2325 46.1291C58.4444 45.7693 58.3216 45.3109 57.9582 45.1053L53.9191 42.8198C53.5557 42.6141 53.0892 42.7391 52.8773 43.0989C52.6653 43.4587 52.7881 43.917 53.1515 44.1227L57.1906 46.4082C57.5541 46.6138 58.0205 46.4889 58.2325 46.1291Z"/>
</svg>
