<svg width="6" height="6" viewBox="0 0 6 6" fill="none" xmlns="http://www.w3.org/2000/svg">
<path d="M5.439 0.560988C5.35534 0.476632 5.25579 0.409678 5.14612 0.363986C5.03645 0.318294 4.91881 0.294769 4.8 0.294769C4.68119 0.294769 4.56356 0.318294 4.45388 0.363986C4.34421 0.409678 4.24467 0.476632 4.161 0.560988L3 1.73099L1.839 0.560988C1.66953 0.391514 1.43967 0.296306 1.2 0.296306C0.960331 0.296306 0.730476 0.391514 0.561003 0.560988C0.39153 0.730461 0.296321 0.960316 0.296321 1.19999C0.296321 1.43966 0.39153 1.66951 0.561003 1.83899L1.731 2.99999L0.561003 4.16099C0.476647 4.24465 0.409693 4.34419 0.364001 4.45387C0.318309 4.56354 0.294785 4.68118 0.294785 4.79999C0.294785 4.9188 0.318309 5.03643 0.364001 5.14611C0.409693 5.25578 0.476647 5.35532 0.561003 5.43899C0.64467 5.52334 0.744211 5.5903 0.853884 5.63599C0.963557 5.68168 1.08119 5.70521 1.2 5.70521C1.31881 5.70521 1.43645 5.68168 1.54612 5.63599C1.6558 5.5903 1.75534 5.52334 1.839 5.43899L3 4.26899L4.161 5.43899C4.24467 5.52334 4.34421 5.5903 4.45388 5.63599C4.56356 5.68168 4.68119 5.70521 4.8 5.70521C4.91881 5.70521 5.03645 5.68168 5.14612 5.63599C5.25579 5.5903 5.35534 5.52334 5.439 5.43899C5.52336 5.35532 5.59031 5.25578 5.636 5.14611C5.6817 5.03643 5.70522 4.9188 5.70522 4.79999C5.70522 4.68118 5.6817 4.56354 5.636 4.45387C5.59031 4.34419 5.52336 4.24465 5.439 4.16099L4.269 2.99999L5.439 1.83899C5.52336 1.75532 5.59031 1.65578 5.636 1.54611C5.6817 1.43643 5.70522 1.3188 5.70522 1.19999C5.70522 1.08118 5.6817 0.963542 5.636 0.853869C5.59031 0.744195 5.52336 0.644654 5.439 0.560988Z"/>
</svg>
