<svg width="32" height="32" viewBox="0 0 32 32" fill="none" xmlns="http://www.w3.org/2000/svg">
<path fill-rule="evenodd" clip-rule="evenodd" d="M32.291 0.290909C32.291 0.136602 32.2297 -0.0113862 32.1205 -0.120498C32.0114 -0.22961 31.8634 -0.290909 31.7091 -0.290909H23.7318C22.7901 1.91325 22.3358 4.29487 22.4 6.69091C22.3897 7.80645 22.4813 8.92059 22.6735 10.0195C23.5474 10.1325 24.428 10.1867 25.3091 10.1818C27.7052 10.246 30.0868 9.79173 32.291 8.85004V0.290909ZM32.2909 10.1108C30.0685 10.9811 27.6952 11.4008 25.3091 11.3454C24.5222 11.3478 23.7357 11.3068 22.9533 11.2227C23.3075 12.3851 23.7829 13.507 24.3718 14.5699C25.8405 17.124 26.5681 20.037 26.4728 22.9818C26.4728 23.5939 26.4501 24.1629 26.4105 24.6999C28.4356 24.6415 30.4311 24.1988 32.2909 23.3955V10.1108ZM32.291 24.6563V31.7091C32.291 31.8634 32.2297 32.0114 32.1205 32.1205C32.0114 32.2296 31.8634 32.2909 31.7091 32.2909H24.1618C24.1875 32.2372 24.2126 32.183 24.2378 32.1287C24.2577 32.0858 24.2777 32.0428 24.2979 32C25.3081 30.0854 25.9827 28.0118 26.2924 25.8694C28.3479 25.8228 30.3789 25.412 32.291 24.6563ZM16.8972 23.79C15.3537 22.9041 13.663 22.3042 11.9064 22.0189C11.9186 22.3285 11.9273 22.6461 11.9273 22.9818C11.9854 26.1244 11.2366 29.2294 9.75248 32C9.73221 32.0429 9.71228 32.0858 9.69238 32.1287L9.69237 32.1287L9.69236 32.1288L9.69234 32.1288C9.66714 32.1831 9.64201 32.2373 9.61633 32.2909H22.8818L22.9045 32.2416C23.0186 31.9944 23.1328 31.7469 23.2495 31.5014C24.1721 29.7454 24.801 27.8501 25.1113 25.8909C22.233 25.9518 19.3928 25.2254 16.8972 23.79ZM-0.120483 32.1205C-0.229595 32.0114 -0.290894 31.8634 -0.290894 31.7091V24.2484C-0.0250026 24.1268 0.236816 24.0052 0.498634 23.8807C3.11588 22.4773 6.04884 21.7672 9.0182 21.8182C9.64133 21.8182 10.2074 21.8432 10.7357 21.8857C10.7526 22.2342 10.7637 22.5949 10.7637 22.9818C10.8146 25.9512 10.1046 28.8841 8.70111 31.5014C8.58447 31.7467 8.47039 31.9939 8.35647 32.2409L8.35636 32.2411L8.3334 32.2909H0.290925C0.136617 32.2909 -0.0113709 32.2296 -0.120483 32.1205ZM-0.290894 22.9655C-0.242603 22.9426 -0.194021 22.92 -0.145439 22.8975C-0.0968572 22.8749 -0.0482754 22.8524 1.5527e-05 22.8294C2.77065 21.3452 5.87562 20.5964 9.0182 20.6546C9.60002 20.6546 10.1382 20.6749 10.6438 20.7127C10.4182 18.736 9.78782 16.8269 8.79187 15.1046C7.44023 12.7597 6.72014 10.1043 6.70198 7.39783C4.53256 7.65628 2.42952 8.31311 0.498634 9.33529C0.236816 9.4598 -0.0250027 9.5814 -0.290894 9.703V22.9655ZM-0.290894 8.42007V0.290909C-0.290894 0.136602 -0.229595 -0.0113862 -0.120483 -0.120498C-0.0113709 -0.22961 0.136617 -0.290909 0.290925 -0.290909H7.92554C7.10981 1.78459 6.69311 3.99541 6.69732 6.22546C4.35467 6.48126 2.08194 7.1798 1.55568e-05 8.28393C-0.0482754 8.30691 -0.0968573 8.32946 -0.145439 8.352L-0.145614 8.35208C-0.194137 8.3746 -0.242661 8.39712 -0.290894 8.42007ZM9.18638 -0.290909C8.31377 1.74042 7.86324 3.92794 7.86216 6.13876C8.23278 6.12131 8.61387 6.10909 9.01823 6.10909C11.963 6.01378 14.876 6.74133 17.4302 8.21004C18.6937 8.92317 20.0495 9.45882 21.4593 9.80189C21.3049 8.77219 21.2304 7.7321 21.2364 6.69091C21.1811 4.30481 21.6008 1.93152 22.471 -0.290909H9.18638ZM7.86389 7.30412C8.23277 7.2855 8.61095 7.2727 9.01822 7.2727C11.7772 7.17597 14.5074 7.85939 16.8955 9.24449C18.3929 10.0922 20.0151 10.6976 21.7019 11.0382C22.0724 12.457 22.6219 13.8228 23.3373 15.1028C24.7228 17.4913 25.4062 20.2223 25.3091 22.9818C25.3091 23.6078 25.2829 24.1844 25.2399 24.7273C22.5034 24.8113 19.798 24.1274 17.4301 22.7531C15.7009 21.7633 13.7997 21.1104 11.8272 20.8291C11.6132 18.6241 10.9311 16.4901 9.82636 14.5699C8.54391 12.363 7.86694 9.85658 7.86389 7.30412Z" fill="url(#paint0_linear_72_269)"/>
<defs>
<linearGradient id="paint0_linear_72_269" x1="3.13251e-05" y1="1.96022e-05" x2="33.4546" y2="32" gradientUnits="userSpaceOnUse">
<stop offset="0.133415" stop-color="#7134F2"/>
<stop offset="1" stop-color="#F23484"/>
</linearGradient>
</defs>
</svg>
