<svg width="20" height="21" viewBox="0 0 20 21" fill="none" xmlns="http://www.w3.org/2000/svg">
  <path
    d="M10 2C10.132 2 10.263 2 10.393 2C9.10837 3.1937 8.28262 4.79984 8.05932 6.53922C7.83602 8.27859 8.22928 10.0412 9.17076 11.5207C10.1122 13.0002 11.5424 14.103 13.2126 14.6375C14.8829 15.1719 16.6876 15.1041 18.313 14.446C17.6878 15.9505 16.6658 17.257 15.3562 18.2263C14.0466 19.1955 12.4985 19.791 10.8769 19.9494C9.2554 20.1077 7.62129 19.8229 6.14892 19.1254C4.67654 18.4278 3.42114 17.3437 2.51661 15.9886C1.61209 14.6335 1.09238 13.0583 1.01291 11.431C0.933445 9.80366 1.29721 8.18529 2.0654 6.74851C2.83359 5.31173 3.97739 4.11042 5.37479 3.27273C6.77219 2.43504 8.37078 1.99239 10 1.992V2Z"
    stroke="#2A2941" stroke-width="2" stroke-linecap="round" stroke-linejoin="round"/>
</svg>
