<svg width="24" height="24" viewBox="0 0 24 24" fill="none" xmlns="http://www.w3.org/2000/svg">
  <path
    class="sun-circle"
    d="M14.828 14.828C15.21 14.459 15.5147 14.0176 15.7244 13.5296C15.934 13.0416 16.0444 12.5167 16.049 11.9856C16.0536 11.4545 15.9524 10.9278 15.7513 10.4362C15.5501 9.94459 15.2531 9.49799 14.8776 9.12242C14.502 8.74685 14.0554 8.44983 13.5638 8.24871C13.0722 8.04759 12.5455 7.94638 12.0144 7.95099C11.4833 7.95561 10.9584 8.06596 10.4704 8.27559C9.98235 8.48523 9.54097 8.78996 9.17198 9.172C8.44335 9.92641 8.04017 10.9368 8.04928 11.9856C8.0584 13.0344 8.47907 14.0376 9.22071 14.7793C9.96234 15.5209 10.9656 15.9416 12.0144 15.9507C13.0632 15.9598 14.0736 15.5566 14.828 14.828Z"
    stroke="white" stroke-width="2" stroke-linecap="round" stroke-linejoin="round"/>
  <path class="sun-beam" d="M6.34302 17.657L4.92902 19.071" stroke="white" stroke-width="2" stroke-linecap="round"
        stroke-linejoin="round"/>
  <path class="sun-beam" d="M6.34302 6.343L4.92902 4.929" stroke="white" stroke-width="2" stroke-linecap="round"
        stroke-linejoin="round"/>
  <path class="sun-beam" d="M17.657 6.343L19.071 4.929" stroke="white" stroke-width="2" stroke-linecap="round" stroke-linejoin="round"/>
  <path class="sun-beam" d="M17.657 17.657L19.071 19.071" stroke="white" stroke-width="2" stroke-linecap="round"
        stroke-linejoin="round"/>
  <path class="sun-beam" d="M4 12H2" stroke="white" stroke-width="2" stroke-linecap="round" stroke-linejoin="round"/>
  <path class="sun-beam" d="M12 4V2" stroke="white" stroke-width="2" stroke-linecap="round" stroke-linejoin="round"/>
  <path class="sun-beam" d="M20 12H22" stroke="white" stroke-width="2" stroke-linecap="round" stroke-linejoin="round"/>
  <path class="sun-beam" d="M12 20V22" stroke="white" stroke-width="2" stroke-linecap="round" stroke-linejoin="round"/>
</svg>
