<svg width="176" height="195" viewBox="0 0 176 195" fill="none" xmlns="http://www.w3.org/2000/svg">
<path class="trash-bin" d="M68.4801 155.997C71.0661 155.997 73.5462 154.97 75.3749 153.141C77.2035 151.313 78.2308 148.833 78.2308 146.247V87.7424C78.2308 85.1563 77.2035 82.6762 75.3749 80.8476C73.5462 79.019 71.0661 77.9917 68.4801 77.9917C65.894 77.9917 63.4139 79.019 61.5853 80.8476C59.7567 82.6762 58.7293 85.1563 58.7293 87.7424V146.247C58.7293 148.833 59.7567 151.313 61.5853 153.141C63.4139 154.97 65.894 155.997 68.4801 155.997ZM156.236 58.4908L136.735 58.4902H39.2279H19.7265C19.7509 58.4902 19.7509 58.4902 19.7265 58.4902H19.7509C19.7509 61.0763 19.7042 58.4902 19.7265 58.4902C19.7265 58.4902 19.7275 58.4902 19.7509 58.4902H19.7265V165.748C19.7265 173.506 22.8084 180.947 28.2942 186.432C33.7801 191.918 41.2205 195 48.9786 195H126.984C134.743 195 142.183 191.918 147.669 186.432C153.155 180.947 156.236 173.506 156.236 165.748V58.4908ZM136.735 165.748C136.735 168.334 135.708 170.814 133.879 172.643C132.051 174.472 129.57 175.499 126.984 175.499H48.9786C46.3926 175.499 43.9124 174.472 42.0838 172.643C40.2552 170.814 39.2279 168.334 39.2279 165.748V58.4902H136.735V165.748ZM107.483 155.997C110.069 155.997 112.549 154.97 114.378 153.141C116.206 151.313 117.234 148.833 117.234 146.247V87.7424C117.234 85.1563 116.206 82.6762 114.378 80.8476C112.549 79.019 110.069 77.9917 107.483 77.9917C104.897 77.9917 102.417 79.019 100.588 80.8476C98.7595 82.6762 97.7322 85.1563 97.7322 87.7424V146.247C97.7322 148.833 98.7595 151.313 100.588 153.141C102.417 154.97 104.897 155.997 107.483 155.997Z"/>
<path class="trash-lid" d="M165.762 39.0029H126.759V29.2521C126.759 21.494 123.677 14.0536 118.192 8.56776C112.706 3.08191 105.265 0 97.5071 0H78.0057C70.2476 0 62.8072 3.08191 57.3213 8.56776C51.8355 14.0536 48.7536 21.494 48.7536 29.2521V39.0029H9.75071C7.16466 39.0029 4.68453 40.0302 2.85592 41.8588C1.0273 43.6874 0 46.1675 0 48.7536C0 51.3396 1.0273 53.8198 2.85592 55.6484C4.68453 57.477 7.16466 58.5043 9.75071 58.5043H19.5014H156.011H165.762C168.348 58.5043 170.828 57.477 172.657 55.6484C174.486 53.8198 175.513 51.3396 175.513 48.7536C175.513 46.1675 174.486 43.6874 172.657 41.8588C170.828 40.0302 168.348 39.0029 165.762 39.0029ZM68.255 29.2521C68.255 26.6661 69.2823 24.186 71.1109 22.3573C72.9395 20.5287 75.4197 19.5014 78.0057 19.5014H97.5071C100.093 19.5014 102.573 20.5287 104.402 22.3573C106.231 24.186 107.258 26.6661 107.258 29.2521V39.0029H68.255V29.2521Z"/>
</svg>
